HIERARCHY
ROOT Hips
{
	OFFSET 0.000000 0.000000 0.000000
	CHANNELS 6 Xposition Yposition Zposition Xrotation Yrotation Zrotation
	JOINT LeftUpLeg_virtual
	{
		OFFSET 0.000000 0.000000 0.000000
		CHANNELS 3 Xrotation Yrotation Zrotation
		JOINT LeftUpLeg
		{
			OFFSET 15.427100 -6.655098 0.678600
			CHANNELS 3 Xrotation Yrotation Zrotation
			JOINT LeftLeg
			{
				OFFSET 4.081073 -39.591068 13.024000
				CHANNELS 3 Xrotation Yrotation Zrotation
				JOINT LeftFoot
				{
					OFFSET -4.081074 -37.707932 -15.979700
					CHANNELS 3 Xrotation Yrotation Zrotation
					JOINT LeftToeBase
					{
						OFFSET 5.346399 -15.068900 20.645000
						CHANNELS 3 Xrotation Yrotation Zrotation
						JOINT LeftToe_End
						{
							OFFSET 2.754700 0.931300 11.300900
							CHANNELS 3 Xrotation Yrotation Zrotation
							End Site
							{
								OFFSET 0 0 0
							}
						}
					}
				}
			}
		}
	}
	JOINT RightUpLeg_virtual
	{
		OFFSET 0.000000 0.000000 0.000000
		CHANNELS 3 Xrotation Yrotation Zrotation
		JOINT RightUpLeg
		{
			OFFSET -15.569500 -6.655098 0.678600
			CHANNELS 3 Xrotation Yrotation Zrotation
			JOINT RightLeg
			{
				OFFSET -4.081825 -39.591045 13.023800
				CHANNELS 3 Xrotation Yrotation Zrotation
				JOINT RightFoot
				{
					OFFSET 4.081824 -37.707954 -15.979600
					CHANNELS 3 Xrotation Yrotation Zrotation
					JOINT RightToeBase
					{
						OFFSET -5.346400 -15.068900 20.645000
						CHANNELS 3 Xrotation Yrotation Zrotation
						JOINT RightToe_End
						{
							OFFSET -2.754700 0.931300 11.300900
							CHANNELS 3 Xrotation Yrotation Zrotation
							End Site
							{
								OFFSET 0 0 0
							}
						}
					}
				}
			}
		}
	}
	JOINT Spine_virtual
	{
		OFFSET 0.000000 0.000000 0.000000
		CHANNELS 3 Xrotation Yrotation Zrotation
		JOINT Spine
		{
			OFFSET -0.279200 12.230698 -2.892100
			CHANNELS 3 Xrotation Yrotation Zrotation
			JOINT Spine1
			{
				OFFSET -0.232667 10.192268 -1.242267
				CHANNELS 3 Xrotation Yrotation Zrotation
				JOINT Spine1_split
				{
					OFFSET -0.232667 10.192268 -1.242267
					CHANNELS 3 Xrotation Yrotation Zrotation
					JOINT Spine2
					{
						OFFSET -0.232667 10.192268 -1.242267
						CHANNELS 3 Xrotation Yrotation Zrotation
						JOINT Neck_virtual
						{
							OFFSET 0.000000 0.000000 0.000000
							CHANNELS 3 Xrotation Yrotation Zrotation
							JOINT Neck
							{
								OFFSET -0.418800 17.814194 8.416900
								CHANNELS 3 Xrotation Yrotation Zrotation
								JOINT Head
								{
									OFFSET 0.000000 7.031097 3.806800
									CHANNELS 3 Xrotation Yrotation Zrotation
									JOINT HeadTop_End
									{
										OFFSET 0.000000 24.646606 12.978600
										CHANNELS 3 Xrotation Yrotation Zrotation
										End Site
										{
											OFFSET 0 0 0
										}
									}
								}
							}
						}
						JOINT LeftShoulder_virtual
						{
							OFFSET 0.000000 0.000000 0.000000
							CHANNELS 3 Xrotation Yrotation Zrotation
							JOINT LeftShoulder
							{
								OFFSET 8.476499 7.247704 -3.868750
								CHANNELS 3 Xrotation Yrotation Zrotation
								JOINT LeftShoulder_split
								{
									OFFSET 8.476499 7.247704 -3.868750
									CHANNELS 3 Xrotation Yrotation Zrotation
									JOINT LeftArm
									{
										OFFSET 9.308998 -2.777710 0.208600
										CHANNELS 3 Xrotation Yrotation Zrotation
										JOINT LeftForeArm
										{
											OFFSET 29.972298 0.000000 0.000000
											CHANNELS 3 Xrotation Yrotation Zrotation
											JOINT LeftHand
											{
												OFFSET 26.026505 0.000000 0.000000
												CHANNELS 3 Xrotation Yrotation Zrotation
												End Site
												{
													OFFSET 0 0 0
												}
											}
										}
									}
								}
							}
						}
						JOINT RightShoulder_virtual
						{
							OFFSET 0.000000 0.000000 0.000000
							CHANNELS 3 Xrotation Yrotation Zrotation
							JOINT RightShoulder
							{
								OFFSET -7.570500 7.247704 -3.868750
								CHANNELS 3 Xrotation Yrotation Zrotation
								JOINT RightShoulder_split
								{
									OFFSET -7.570500 7.247704 -3.868750
									CHANNELS 3 Xrotation Yrotation Zrotation
									JOINT RightArm
									{
										OFFSET -9.308998 -2.777710 0.208500
										CHANNELS 3 Xrotation Yrotation Zrotation
										JOINT RightForeArm
										{
											OFFSET -29.972300 0.000000 0.000000
											CHANNELS 3 Xrotation Yrotation Zrotation
											JOINT RightHand
											{
												OFFSET -26.026505 0.000000 0.000000
												CHANNELS 3 Xrotation Yrotation Zrotation
												End Site
												{
													OFFSET 0 0 0
												}
											}
										}
									}
								}
							}
						}
					}
				}
			}
		}
	}
}
MOTION
Frames: 10
Frame Time: 0.03333333
10.501268 79.413170 78.569969 0.000000 0.000000 0.000000 163.096202 50.654582 -174.991837 -52.088935 1.914829 16.145392 29.281523 -30.245314 3.409905 5.085796 1.230260 -15.427997 2.291172 2.130899 -8.647948 0.000000 0.000000 0.000000 165.532011 45.247712 -179.047890 -16.196117 -30.604001 -24.881954 32.114276 -2.811528 6.993951 -16.922586 -7.243644 17.453563 5.722263 -0.462677 -0.189771 0.000000 0.000000 0.000000 165.110439 50.233186 -176.969710 16.734771 4.407595 -2.689527 10.975841 13.699837 -12.185281 0.571843 -6.167209 1.411412 0.000000 0.000000 0.000000 3.866001 13.057964 -10.318502 5.577815 4.174177 6.029673 -3.729300 9.595628 -7.693387 0.000000 0.000000 0.000000 2.784669 13.696402 -11.161918 0.921836 19.675724 -5.322024 -5.972515 -1.880070 0.012126 21.654201 33.757476 -67.218439 -56.837887 -27.462949 -29.389604 0.000000 0.000000 0.000000 2.467108 12.883903 -11.113124 5.789839 14.289695 2.081691 -7.819896 -2.782467 0.308117 -55.838613 32.020060 69.586521 35.050338 30.295198 0.131302 0.000000 0.000000 0.000000 
10.035243 79.590729 76.022087 0.000000 0.000000 0.000000 162.037796 55.488576 -174.275050 -50.111442 0.632277 18.924600 32.223999 -29.587942 3.348973 2.280208 1.733330 -15.040553 2.635286 1.966634 -8.992287 0.000000 0.000000 0.000000 164.583257 49.643755 -178.209771 -19.839910 -28.644514 -25.004378 31.950979 -1.116927 5.937156 -12.505441 -5.339031 17.322751 3.173087 -0.013621 -0.256176 0.000000 0.000000 0.000000 163.974086 55.006741 -176.328491 16.442960 4.717731 -1.713758 10.582311 13.086228 -12.301645 0.282479 -6.187599 1.483440 0.000000 0.000000 0.000000 3.638922 12.397168 -10.401075 4.403646 4.580729 5.243954 -2.634314 8.975337 -7.393428 0.000000 0.000000 0.000000 2.406393 13.060134 -11.247804 1.379917 18.074470 -8.142685 -6.131396 -1.465878 0.980454 16.271437 31.059807 -60.188870 -51.522395 -29.059409 -28.864349 0.000000 0.000000 0.000000 2.097448 12.207915 -11.151857 5.618835 13.532309 2.474504 -9.457918 -2.286091 0.467180 -48.342508 28.934484 66.851323 34.989966 37.700930 -0.527576 0.000000 0.000000 0.000000 
9.371562 79.351021 73.160706 0.000000 0.000000 0.000000 160.880243 60.368258 -173.414760 -47.929551 -0.763023 21.396679 36.145580 -28.350976 3.563569 -1.026285 2.510033 -14.360553 2.920759 1.916656 -8.981559 0.000000 0.000000 0.000000 163.461139 54.225111 -177.056972 -23.315985 -25.780556 -25.016355 32.000929 0.896630 4.636752 -8.298553 -3.360295 19.119889 -0.339839 0.150542 0.091188 0.000000 0.000000 0.000000 162.851039 60.164971 -175.745658 16.157975 4.807963 -1.066984 10.020278 12.257892 -12.387999 0.144301 -5.805878 1.464962 0.000000 0.000000 0.000000 3.255198 11.637846 -10.488679 3.169857 4.864422 5.277270 -1.945359 8.251665 -6.540205 0.000000 0.000000 0.000000 1.798270 12.316373 -11.273814 1.569862 15.625151 -10.578693 -6.442257 -1.148715 1.665529 10.253010 27.730297 -51.472678 -45.329893 -30.808258 -27.844846 0.000000 0.000000 0.000000 1.406785 11.392338 -11.106684 5.327665 12.146925 2.806522 -11.123539 -1.664878 -0.076045 -40.699591 24.664264 62.628860 34.689974 48.232976 -0.974124 0.000000 0.000000 0.000000 
8.564974 78.814491 69.931351 0.000000 0.000000 0.000000 159.032321 65.077612 -171.627873 -45.634358 -2.017087 23.193174 39.933131 -26.279479 3.785261 -4.868882 3.522729 -13.132556 2.633794 2.020631 -8.521510 0.000000 0.000000 0.000000 161.840226 59.008224 -175.199557 -26.161713 -22.231076 -24.664358 32.477065 2.882644 3.140793 -5.869411 -1.816216 21.593549 -3.068833 0.014757 0.916044 0.000000 0.000000 0.000000 161.342715 65.441934 -174.630848 15.895800 4.561996 -0.735284 9.244889 11.179561 -12.413184 0.260802 -4.929625 1.625044 0.000000 0.000000 0.000000 2.718065 10.727344 -10.566096 2.040919 4.950160 5.855531 -2.204239 7.254481 -5.074219 0.000000 0.000000 0.000000 0.901882 11.423995 -11.219393 1.432875 12.646085 -12.035169 -6.625566 -0.793218 2.090698 3.653115 23.428030 -41.993878 -38.115959 -32.686342 -25.884694 0.000000 0.000000 0.000000 0.415050 10.415726 -10.989190 4.955337 10.265056 2.996095 -12.233845 -0.491535 -1.074225 -34.132535 19.180025 57.640636 33.677682 61.129346 -0.754477 0.000000 0.000000 0.000000 
7.828209 78.396057 66.415253 0.000000 0.000000 0.000000 155.228562 69.699403 -167.588814 -43.389279 -2.979315 24.284814 42.740079 -23.611216 3.762452 -8.782872 4.240479 -11.605257 1.604070 2.233415 -7.755495 0.000000 0.000000 0.000000 159.007186 64.239070 -171.970544 -28.083615 -18.366959 -23.932325 33.487536 4.191049 1.681944 -6.256158 -1.464858 22.730390 -2.562100 -0.308252 2.326724 0.000000 0.000000 0.000000 158.525439 70.600694 -171.880003 15.621268 3.963276 -0.595546 8.287435 9.871292 -12.330199 0.399597 -4.278483 1.688365 0.000000 0.000000 0.000000 1.993263 9.607187 -10.588140 1.203218 4.907145 6.598376 -3.530985 5.855306 -3.123529 0.000000 0.000000 0.000000 -0.181242 10.311654 -11.056728 1.048351 9.491394 -12.319138 -6.906728 -0.617606 2.022384 -2.651118 17.758772 -32.976884 -29.256972 -34.123075 -22.155682 0.000000 0.000000 0.000000 -0.773821 9.211279 -10.819276 4.498805 8.032902 3.011383 -12.510572 0.785764 -2.379379 -29.217391 13.178036 52.663955 30.378004 74.938267 1.592656 0.000000 0.000000 0.000000 
7.154232 78.422195 62.606262 0.000000 0.000000 0.000000 147.594541 74.175363 -159.555733 -41.417967 -3.651486 24.683740 44.405082 -20.542074 3.421421 -12.038521 4.367186 -10.125791 0.283618 2.459238 -6.934109 0.000000 0.000000 0.000000 153.923627 69.604129 -166.469264 -29.521037 -14.659522 -23.096835 34.420960 4.333322 0.465914 -8.861176 -2.553857 21.781620 1.411862 -0.586613 4.180662 0.000000 0.000000 0.000000 152.373570 75.564446 -165.541492 15.246092 3.050977 -0.521342 7.187595 8.339120 -12.071456 0.593967 -3.452261 1.373544 0.000000 0.000000 0.000000 1.095897 8.274344 -10.510353 0.857993 4.875172 7.098486 -5.698306 4.083274 -0.987703 0.000000 0.000000 0.000000 -1.320102 8.943816 -10.776952 0.563185 6.285946 -11.547226 -6.851746 -0.675865 1.485057 -7.807600 10.529794 -25.728500 -18.942353 -34.056949 -16.585337 0.000000 0.000000 0.000000 -1.935595 7.768071 -10.579315 4.069768 5.720035 2.871783 -12.151179 1.096934 -3.628386 -25.688212 7.701482 48.175978 -7.408223 87.680996 38.316723 0.000000 0.000000 0.000000 
6.531295 78.947075 58.264729 0.000000 0.000000 0.000000 132.418025 78.208057 -143.885052 -39.902535 -3.958832 24.433503 45.363603 -17.113548 2.840191 -14.556660 4.050818 -8.423039 -0.402330 2.576273 -6.458307 0.000000 0.000000 0.000000 144.291967 74.911609 -156.447341 -30.467432 -11.335721 -22.232296 34.616792 3.569332 -0.341155 -11.906751 -4.283313 19.808742 5.786328 -0.763342 6.036480 0.000000 0.000000 0.000000 138.368499 79.971284 -151.148835 14.859719 1.988471 -0.402603 6.099310 6.713218 -11.615330 0.729172 -2.667110 0.909205 0.000000 0.000000 0.000000 0.135642 6.805868 -10.246949 1.126791 4.988802 7.066198 -8.219445 2.236961 0.952287 0.000000 0.000000 0.000000 -2.319287 7.350417 -10.353039 0.110806 3.384764 -10.179126 -6.219239 -0.859350 0.848597 -11.844847 1.907970 -21.042928 -8.395463 -32.249390 -10.218414 0.000000 0.000000 0.000000 -2.929265 6.206893 -10.199063 3.701420 3.737986 2.722006 -10.948777 0.248864 -4.448481 -23.151532 3.470293 44.577182 -135.808312 80.447122 165.522504 0.000000 0.000000 0.000000 
5.994269 80.030701 53.480801 0.000000 0.000000 0.000000 103.019716 80.822858 -113.935895 -38.572780 -3.488711 23.692255 45.787942 -13.226493 2.025782 -16.592280 3.615671 -6.621118 -0.003258 2.606099 -6.446585 0.000000 0.000000 0.000000 124.125847 79.485302 -135.879346 -30.679577 -8.794194 -21.441980 33.812220 2.318766 -0.791743 -13.500838 -5.859526 18.484841 7.443213 -1.061462 7.536949 0.000000 0.000000 0.000000 105.320615 82.972701 -117.643124 14.462618 0.974210 -0.191361 5.177854 5.137638 -10.951204 0.988003 -2.178969 0.403366 0.000000 0.000000 0.000000 -0.806184 5.343003 -9.749996 2.013749 5.276069 6.484959 -10.502031 0.665637 2.468722 0.000000 0.000000 0.000000 -3.063507 5.684712 -9.760617 -0.282424 0.984136 -8.511682 -5.427011 -0.763526 -0.015810 -15.234655 -7.234726 -19.081511 0.624095 -29.519063 -4.447780 0.000000 0.000000 0.000000 -3.660946 4.663580 -9.639886 3.445597 2.464605 2.644527 -9.661035 -1.522080 -4.719684 -21.362245 0.909246 41.896753 -141.311368 72.438671 169.710407 0.000000 0.000000 0.000000 
5.516241 81.462013 48.383926 0.000000 0.000000 0.000000 64.058807 80.047700 -74.393177 -37.009670 -1.990581 22.628758 45.541383 -8.583704 0.848514 -18.385698 3.483612 -4.963303 0.706173 2.621100 -6.608316 0.000000 0.000000 0.000000 83.904025 81.462546 -95.194320 -29.769759 -7.531814 -20.640596 31.620183 0.813793 -1.006480 -12.868076 -6.893802 18.866922 5.759906 -1.636870 8.523488 0.000000 0.000000 0.000000 57.992800 81.946895 -69.861702 14.106187 0.191626 0.059974 4.528922 3.780869 -10.111743 1.226951 -1.616665 -0.011705 0.000000 0.000000 0.000000 -1.596662 4.042954 -9.019538 3.370689 5.662392 5.513969 -12.145713 -0.305392 3.423444 0.000000 0.000000 0.000000 -3.506299 4.167518 -8.996183 -0.594580 -0.801581 -6.870737 -4.604044 -0.390123 -0.507279 -18.636936 -15.364203 -19.595946 6.940836 -27.053374 -0.123193 0.000000 0.000000 0.000000 -4.104819 3.347224 -8.882058 3.319923 2.076430 2.647772 -8.725266 -3.375781 -4.318040 -20.399767 0.293163 40.111116 -143.665571 67.794798 170.631963 0.000000 0.000000 0.000000 
5.243348 83.007568 43.039211 0.000000 0.000000 0.000000 37.036151 75.756101 -46.770379 -34.904254 0.583189 21.366946 44.716262 -3.294898 -0.577172 -19.517757 3.923823 -3.873834 0.679842 2.673332 -6.606253 0.000000 0.000000 0.000000 43.905890 78.407109 -54.594218 -27.331029 -7.504125 -19.717095 28.241832 -0.782340 -1.155910 -11.288792 -6.992200 20.159134 2.271114 -2.344249 9.076457 0.000000 0.000000 0.000000 30.229779 77.023579 -41.633415 13.819088 -0.237372 0.304442 4.209105 2.811072 -9.155290 1.205567 -1.296798 0.051438 0.000000 0.000000 0.000000 -2.214259 3.084929 -8.105315 4.965573 6.017654 4.448944 -12.956373 -0.535716 3.898215 0.000000 0.000000 0.000000 -3.638533 3.001833 -8.093089 -0.847231 -1.988809 -5.369867 -3.977281 0.357961 -0.572997 -22.174325 -21.091853 -22.195980 10.288562 -26.366139 2.634083 0.000000 0.000000 0.000000 -4.306979 2.426949 -7.975299 3.259671 2.539077 2.730868 -7.924298 -4.288342 -3.815156 -20.501793 1.528129 39.174799 -145.123461 66.609446 170.500660 0.000000 0.000000 0.000000 
